<svg xmlns="http://www.w3.org/2000/svg" width="47.852" height="62.987" viewBox="0 0 47.852 62.987"><defs><style>.a{fill:#f7f0f2;}</style></defs><path class="a" d="M782.67,685.191a4.014,4.014,0,0,0-4.919-1.673l-.322.139a4.009,4.009,0,0,1-4.914-1.685l-10.828-19.115a4.035,4.035,0,0,1,1.1-5.091l.277-.2a4.025,4.025,0,0,0,1.1-5.085L758.3,642.141a2.041,2.041,0,0,0-3.724-.189l-5.253,7.415a9.4,9.4,0,0,0-1.356,6.264s1.351,7.049,9.955,22.245,13.7,19.621,13.7,19.621a9.611,9.611,0,0,0,6.109,2.018l9.043-.679c1.907-.161,2.707-1.628,1.762-3.29Zm12.824,7.959-6.759-11.944a1.907,1.907,0,0,0-2.4-.778l-1.328.611a1.53,1.53,0,0,0-.712,2.179l6.976,12.317a1.706,1.706,0,0,0,2.324.65l1.25-.706A1.721,1.721,0,0,0,795.494,693.15Zm-28.815-41.037a1.539,1.539,0,0,0,2.246.512l1.2-.823a1.891,1.891,0,0,0,.561-2.451l-6.759-11.94a1.7,1.7,0,0,0-2.323-.644l-1.257.7a1.722,1.722,0,0,0-.644,2.33Z" transform="translate(-747.86 -636.543)"/></svg>