<svg xmlns="http://www.w3.org/2000/svg" width="54.177" height="35.124" viewBox="0 0 54.177 35.124"><defs><style>.a{fill:#e1dcdd;}</style></defs><g transform="translate(-374.574 -649.494)"><path class="a" d="M374.735,653.88a1.966,1.966,0,0,1-.161-.167V680.4c.056-.053.111-.109.172-.164l13.646-13.157Z"/><path class="a" d="M392.4,664.1l2.846,2.74,2.79,2.7a6.507,6.507,0,0,0,8.865,0l2.368-2.279,2.835-2.737L426.139,651a5.415,5.415,0,0,0,1.162-1.509H377.475a6.109,6.109,0,0,0,.895,1.059Z"/><path class="a" d="M412.1,669.982l-2.746,2.657a9.976,9.976,0,0,1-13.779-.008l-3.179-3.063-14.03,13.524a5.361,5.361,0,0,0-1.172,1.526h49.841a6.466,6.466,0,0,0-.894-1.076Z"/><path class="a" d="M428.585,654.1l-13.652,13.162,13.652,13.185c.055.061.116.114.166.167V653.921C428.7,653.98,428.64,654.035,428.585,654.1Z"/></g></svg>