<svg xmlns="http://www.w3.org/2000/svg" xmlns:xlink="http://www.w3.org/1999/xlink" width="49.285" height="34.832" viewBox="0 0 49.285 34.832"><defs><style>.a{fill:url(#a);}.b{fill:url(#b);}</style><linearGradient id="a" x1="0.5" x2="0.5" y2="1" gradientUnits="objectBoundingBox"><stop offset="0" stop-color="#876427"/><stop offset="0.041" stop-color="#9c7f43"/><stop offset="0.104" stop-color="#baa36a"/><stop offset="0.171" stop-color="#d2c18a"/><stop offset="0.239" stop-color="#e5d9a3"/><stop offset="0.31" stop-color="#f2e9b5"/><stop offset="0.386" stop-color="#faf3bf"/><stop offset="0.475" stop-color="#fdf7c3"/><stop offset="0.565" stop-color="#faf3bf"/><stop offset="0.648" stop-color="#f1e8b4"/><stop offset="0.728" stop-color="#e1d5a1"/><stop offset="0.806" stop-color="#ccbb87"/><stop offset="0.883" stop-color="#b19965"/><stop offset="0.958" stop-color="#90703c"/><stop offset="1" stop-color="#7b5622"/></linearGradient><linearGradient id="b" y1="1" y2="0" xlink:href="#a"/></defs><g transform="translate(-1606.124 -610.992)"><path class="a" d="M13.5,29.343H9.142v-6.7c4.492-.447,7.826-5.1,7.835-10.613A34.661,34.661,0,0,0,14.389.4a.667.667,0,0,0-.2-.264A.678.678,0,0,0,13.79,0L3.075,0A.534.534,0,0,0,2.76.125.521.521,0,0,0,2.585.4,34.594,34.594,0,0,0,0,12.028C0,17.539,3.342,22.193,7.835,22.64v6.7H3.47a.647.647,0,0,0,0,1.291H13.5a.647.647,0,0,0,0-1.291ZM3.479,1.7a.613.613,0,0,1,.574-.391h8.87A.612.612,0,0,1,13.5,1.7a37.361,37.361,0,0,1,1.848,6.91H1.626A37.228,37.228,0,0,1,3.479,1.7Zm-.018,17A10.87,10.87,0,0,1,1.3,12.028a18.126,18.126,0,0,1,.141-2.114H15.53a18.39,18.39,0,0,1,.14,2.114A10.869,10.869,0,0,1,13.513,18.7a6.431,6.431,0,0,1-5.027,2.68A6.428,6.428,0,0,1,3.461,18.7Z" transform="matrix(0.921, 0.391, -0.391, 0.921, 1618.094, 610.992)"/><path class="b" d="M13.5,1.291H9.142v6.7c4.492.447,7.826,5.1,7.835,10.613a34.661,34.661,0,0,1-2.588,11.626.667.667,0,0,1-.2.264.678.678,0,0,1-.395.138l-10.715,0a.534.534,0,0,1-.315-.122.521.521,0,0,1-.174-.277A34.594,34.594,0,0,1,0,18.607C0,13.1,3.342,8.441,7.835,7.994v-6.7H3.47A.628.628,0,0,1,2.86.645.628.628,0,0,1,3.47,0H13.5a.628.628,0,0,1,.61.645A.628.628,0,0,1,13.5,1.291ZM3.479,28.938a.613.613,0,0,0,.574.391h8.87a.612.612,0,0,0,.575-.393,37.36,37.36,0,0,0,1.848-6.91H1.626A37.228,37.228,0,0,0,3.479,28.938Zm-.018-17A10.87,10.87,0,0,0,1.3,18.607a18.127,18.127,0,0,0,.141,2.114H15.53a18.39,18.39,0,0,0,.14-2.114,10.869,10.869,0,0,0-2.156-6.673,6.431,6.431,0,0,0-5.027-2.68A6.428,6.428,0,0,0,3.461,11.933Z" transform="matrix(-0.921, 0.391, -0.391, -0.921, 1655.409, 639.191)"/></g></svg>