<svg xmlns="http://www.w3.org/2000/svg" xmlns:xlink="http://www.w3.org/1999/xlink" width="56.245" height="70.689" viewBox="0 0 56.245 70.689"><defs><style>.a{fill:url(#a);}</style><linearGradient id="a" x1="0.5" x2="0.5" y2="1" gradientUnits="objectBoundingBox"><stop offset="0" stop-color="#876427"/><stop offset="0.041" stop-color="#9c7f43"/><stop offset="0.104" stop-color="#baa36a"/><stop offset="0.171" stop-color="#d2c18a"/><stop offset="0.239" stop-color="#e5d9a3"/><stop offset="0.31" stop-color="#f2e9b5"/><stop offset="0.386" stop-color="#faf3bf"/><stop offset="0.475" stop-color="#fdf7c3"/><stop offset="0.565" stop-color="#faf3bf"/><stop offset="0.648" stop-color="#f1e8b4"/><stop offset="0.728" stop-color="#e1d5a1"/><stop offset="0.806" stop-color="#ccbb87"/><stop offset="0.883" stop-color="#b19965"/><stop offset="0.958" stop-color="#90703c"/><stop offset="1" stop-color="#7b5622"/></linearGradient></defs><g transform="translate(-383.694 -17.13)"><path class="a" d="M396.034,48.128l.692-.4V37.652l-1.249-.106a4.949,4.949,0,0,1-4.02-4.574,4.949,4.949,0,0,1,4.02-4.574l1.249-.112V18.208l-.69-.389a8.277,8.277,0,0,0-3.323-.69h-.005c-2.718.059-4.859,2.135-6.427,4.947a22.968,22.968,0,0,0-2.588,10.894,22.911,22.911,0,0,0,2.588,10.886c1.568,2.819,3.709,4.9,6.427,4.955A8.392,8.392,0,0,0,396.034,48.128Zm-7.351-5.594a20.261,20.261,0,0,1-2.247-9.563,20.3,20.3,0,0,1,2.247-9.569c1.313-2.425,3-3.589,4.025-3.53h.224c.272.021.687.08,1.052.149v5.037a1.323,1.323,0,0,1-.815,1.187,7.65,7.65,0,0,0-4.454,6.725,7.64,7.64,0,0,0,4.454,6.723,1.326,1.326,0,0,1,.815,1.19v5.029a7.067,7.067,0,0,1-1.275.154C391.684,46.126,390,44.963,388.683,42.534Z" transform="translate(0 0)"/><g transform="translate(392.509 18.702)"><path class="a" d="M404.116,44.053h.032a13.165,13.165,0,1,0-.032,0ZM407,20.914a10.215,10.215,0,0,1,7.141,7.21A10.371,10.371,0,1,1,407,20.914Z" transform="translate(-380.418 -17.72)"/><path class="a" d="M417.4,28.923H404.041A17.037,17.037,0,0,0,387,45.962V66.857a1.357,1.357,0,0,0,1.358,1.358h44.712a1.359,1.359,0,0,0,1.361-1.358V45.96A17.037,17.037,0,0,0,417.4,28.923Zm14.23,35.125a1.359,1.359,0,0,1-1.358,1.36h-3.911A1.361,1.361,0,0,1,425,64.048V42.874a1.43,1.43,0,0,0-2.854,0V64.293a1.34,1.34,0,0,1-1.31,1.116h-20.5a1.338,1.338,0,0,1-1.294-1.046V42.874a1.43,1.43,0,0,0-2.854,0V45.2h-.016V64.048a1.361,1.361,0,0,1-1.36,1.36h-3.645a1.361,1.361,0,0,1-1.358-1.36V45.97a14.252,14.252,0,0,1,14.233-14.241H417.4a14.255,14.255,0,0,1,14.23,14.241Z" transform="translate(-387.005 0.902)"/></g></g></svg>